<svg width="25" height="24" viewBox="0 0 25 24" fill="none" xmlns="http://www.w3.org/2000/svg">
<path d="M3.75 3L21.75 21" stroke="#747681" stroke-width="1.5" stroke-linecap="round" stroke-linejoin="round"/>
<path d="M11.334 10.587C10.9587 10.9621 10.7478 11.4708 10.7476 12.0013C10.7474 12.5319 10.958 13.0408 11.333 13.416C11.708 13.7913 12.2168 14.0023 12.7473 14.0024C13.2778 14.0026 13.7867 13.7921 14.162 13.417" stroke="#747681" stroke-width="1.5" stroke-linecap="round" stroke-linejoin="round"/>
<path d="M10.113 5.36506C10.9704 5.11978 11.8582 4.9969 12.75 5.00006C16.75 5.00006 20.083 7.33306 22.75 12.0001C21.972 13.3611 21.138 14.5241 20.247 15.4881M18.107 17.3491C16.476 18.4491 14.692 19.0001 12.75 19.0001C8.75 19.0001 5.417 16.6671 2.75 12.0001C4.119 9.60506 5.663 7.82506 7.382 6.65906" stroke="#747681" stroke-width="1.5" stroke-linecap="round" stroke-linejoin="round"/>
</svg>
